HIERARCHY
ROOT Hips
{
	OFFSET -3.958830 18.904000 13.208200
	CHANNELS 6 Xposition Yposition Zposition Zrotation Yrotation Xrotation 
	JOINT LHipJoint
	{
		OFFSET 0.000000 0.000000 0.000000
		CHANNELS 3 Zrotation Yrotation Xrotation
		JOINT LeftUpLeg
		{
			OFFSET 1.800000 -1.400000 0.085000
			CHANNELS 3 Zrotation Yrotation Xrotation
			JOINT LeftLeg
			{
				OFFSET 2.215000 -6.000000 0.000000
				CHANNELS 3 Zrotation Yrotation Xrotation
				JOINT LeftFoot
				{
					OFFSET 2.500000 -6.900000 0.000000
					CHANNELS 3 Zrotation Yrotation Xrotation
					JOINT LeftToeBase
					{
						OFFSET 0.200000 -0.500000 1.950000
						CHANNELS 3 Zrotation Yrotation Xrotation
						End Site
						{
							OFFSET 0.000000 0.000000 0.000000
						}
					}
				}
			}
		}
	}
	JOINT RHipJoint
	{
		OFFSET 0.000000 0.000000 0.000000
		CHANNELS 3 Zrotation Yrotation Xrotation
		JOINT RightUpLeg
		{
			OFFSET -1.800000 -1.400000 0.085000
			CHANNELS 3 Zrotation Yrotation Xrotation
			JOINT RightLeg
			{
				OFFSET -2.215000 -6.000000 0.000000
				CHANNELS 3 Zrotation Yrotation Xrotation
				JOINT RightFoot
				{
					OFFSET -2.500000 -6.900000 0.000000
					CHANNELS 3 Zrotation Yrotation Xrotation
					JOINT RightToeBase
					{
						OFFSET -0.200000 -0.500000 1.950000
						CHANNELS 3 Zrotation Yrotation Xrotation
						End Site
						{
							OFFSET 0.000000 0.000000 0.000000
						}
					}
				}
			}
		}
	}
	JOINT LowerBack
	{
		OFFSET 0.000000 0.000000 0.000000
		CHANNELS 3 Zrotation Yrotation Xrotation
		JOINT Spine
		{
			OFFSET -0.087000 1.940000 -0.288900
			CHANNELS 3 Zrotation Yrotation Xrotation
			JOINT Spine1
			{
				OFFSET 0.000000 1.950000 0.060000
				CHANNELS 3 Zrotation Yrotation Xrotation
				JOINT Neck
				{
					OFFSET 0.000000 0.000000 0.000000
					CHANNELS 3 Zrotation Yrotation Xrotation
					JOINT Neck1
					{
						OFFSET 0.000000 1.600000 0.340000
						CHANNELS 3 Zrotation Yrotation Xrotation
						JOINT Head
						{
							OFFSET 0.000000 1.667000 -0.240000
							CHANNELS 3 Zrotation Yrotation Xrotation
							End Site
							{
								OFFSET 0.000000 0.000000 0.000000
							}
						}
					}
				}
				JOINT LeftShoulder
				{
					OFFSET 0.000000 0.000000 0.000000
					CHANNELS 3 Zrotation Yrotation Xrotation
					JOINT LeftArm
					{
						OFFSET 2.700000 1.550000 -0.730000
						CHANNELS 3 Zrotation Yrotation Xrotation
						JOINT LeftForeArm
						{
							OFFSET 5.450000 0.000000 0.000000
							CHANNELS 3 Zrotation Yrotation Xrotation
							JOINT LeftHand
							{
								OFFSET 3.450000 0.000000 0.000000
								CHANNELS 3 Zrotation Yrotation Xrotation
								JOINT LeftHandIndex1
								{
									OFFSET 0.750000 0.000000 0.000000
									CHANNELS 3 Zrotation Yrotation Xrotation
									End Site
									{
										OFFSET 0.000000 0.000000 0.000000
									}
								}
							}
						}
					}
				}
				JOINT RightShoulder
				{
					OFFSET 0.000000 0.000000 0.000000
					CHANNELS 3 Zrotation Yrotation Xrotation
					JOINT RightArm
					{
						OFFSET -2.700000 1.550000 -0.730000
						CHANNELS 3 Zrotation Yrotation Xrotation
						JOINT RightForeArm
						{
							OFFSET -5.450000 0.000000 0.000000
							CHANNELS 3 Zrotation Yrotation Xrotation
							JOINT RightHand
							{
								OFFSET -3.450000 0.000000 0.000000
								CHANNELS 3 Zrotation Yrotation Xrotation
								JOINT RightHandIndex1
								{
									OFFSET -0.750000 0.000000 0.000000
									CHANNELS 3 Zrotation Yrotation Xrotation
									End Site
									{
										OFFSET 0.000000 0.000000 0.000000
									}
								}
							}
						}
					}
				}
			}
		}
	}
}
MOTION
Frames: 9
Frame Time: 0.016667
-0.878730 16.948900 -1.584170 -170.484260 -30.211142 162.978371 -15.782117 13.755408 3.529670 20.548320 0.988574 -23.044552 -6.814098 8.837059 22.141463 -1.057192 5.880545 2.249016 0.732170 0.796970 0.190490 17.488884 -10.859729 2.899958 1.242221 1.106895 -5.387023 3.942125 -5.482580 25.335892 -0.321414 -4.639139 2.817168 0.917600 0.489370 -0.192920 -2.125334 -2.684599 -8.923679 -2.609591 5.492970 16.800554 11.314852 6.204861 29.735577 -3.322906 -2.515246 -22.258151 -5.571170 -2.703132 31.670455 5.421290 -6.109140 -15.398590 5.958801 -28.467455 12.820940 -51.943435 -80.607969 8.846475 68.931096 -28.238386 -34.217695 -4.070780 1.437808 0.214380 0.235770 -0.352600 0.236290 1.592620 36.159620 12.637403 12.319685 22.257602 -5.461345 -26.401270 12.330618 -5.403506 1.958753 -1.921816 -0.441980 0.827230 0.102750 -0.138020 
-0.910330 17.049400 -1.525760 -171.740025 -29.138227 165.727555 -15.807990 13.924531 3.366776 16.772514 0.134050 -23.873048 -5.822518 7.868347 21.237873 -0.996999 5.235753 2.537031 0.644230 0.682200 0.084610 17.454005 -10.799412 2.799254 -0.294574 1.179732 -6.952876 5.196160 -5.534849 23.257665 -0.214435 -4.340042 2.959303 0.801280 0.474020 -0.229720 -1.966839 -3.054524 -8.371910 -2.885796 5.110553 14.396555 10.209981 5.199771 30.682190 -2.512617 -3.127072 -21.425521 -6.685706 -4.668589 30.865368 7.657770 -9.227550 -15.242940 3.507041 -31.371254 12.308549 -48.712492 -74.862369 10.883268 62.704578 -32.257064 -33.448298 -4.003161 2.208770 0.210290 0.165780 -0.375740 0.242580 2.658044 38.273306 13.799323 9.970133 19.518305 -6.768019 -27.012656 10.931595 -5.146674 2.081792 -1.904070 -0.417070 0.774950 0.114360 -0.094320 
-0.953900 17.142700 -1.455830 -172.885454 -29.889429 168.469125 -15.833751 14.094306 3.322563 12.862705 -0.955701 -24.679595 -4.932039 6.874391 19.990252 -0.893471 4.575649 2.832886 0.538530 0.519240 0.035370 17.426172 -10.628288 2.703814 -2.323126 1.222851 -8.595149 7.239676 -5.817436 20.843339 -0.143191 -4.051367 3.095306 0.619160 0.413800 -0.228970 -1.853910 -3.642141 -7.942041 -3.488943 4.136560 13.304379 9.550949 3.750448 29.204604 -1.539186 -3.680273 -20.585371 -8.225763 -5.462656 31.169594 9.222730 -10.908620 -14.856930 0.080692 -33.075222 11.838665 -49.211650 -68.406089 12.680891 53.809498 -40.507504 -30.606910 -3.712739 2.464526 0.243230 0.089340 -0.350730 0.223410 4.362880 39.126034 14.497448 8.257580 16.738756 -6.571661 -25.535886 8.874195 -4.138702 2.216792 -1.785916 -0.370720 0.670090 0.110360 -0.082070 
-1.008040 17.221430 -1.400890 -174.661777 -29.314823 171.755199 -15.815240 14.072363 3.281594 8.968381 -1.724580 -24.755328 -4.344250 6.058617 18.356874 -0.701127 3.869849 3.147775 0.534530 0.531530 0.021840 17.453831 -10.576932 2.657195 -4.512018 1.344985 -10.551010 8.866232 -5.799894 18.553382 -0.115066 -3.822592 3.209582 0.512800 0.326510 -0.218890 -1.928214 -3.716709 -7.687438 -3.658071 4.223331 12.552350 9.519528 3.522913 26.361927 -0.681364 -4.279137 -19.827683 -9.703625 -5.791126 31.435348 9.533810 -11.792150 -13.157330 -2.541520 -31.852453 11.546474 -57.491310 -64.426832 15.826486 39.076984 -50.374163 -25.287540 -3.336699 2.679807 0.188270 0.030060 -0.295110 0.272660 5.590575 37.810348 14.408367 7.487039 14.689443 -5.741133 -24.235055 6.895343 -3.334116 2.379893 -1.769336 -0.246470 0.529960 -0.001830 -0.022270 
-1.077590 17.293370 -1.342740 -176.505460 -27.914614 174.089814 -15.815244 14.124834 3.309678 5.442923 -2.174463 -23.861102 -3.923167 5.471579 16.877025 -0.511123 3.280816 3.370806 0.539910 0.553020 0.034760 17.434679 -10.542369 2.663263 -6.385421 1.391866 -11.698564 9.770524 -5.665992 16.958744 -0.117198 -3.609782 3.289510 0.409760 0.180960 -0.235790 -1.914903 -3.886148 -7.669557 -3.441357 4.513747 13.206332 8.990689 3.987059 23.161989 0.342477 -5.510609 -19.304102 -12.827477 -6.051460 32.828759 11.251260 -13.290050 -13.245340 -4.975396 -29.980696 10.392730 -63.027716 -58.559991 16.440284 20.592807 -58.720655 -18.097477 -3.096047 3.034834 0.188590 -0.092800 -0.202450 0.287530 6.378896 36.828799 14.921412 6.605978 12.441669 -4.867923 -21.892652 4.535393 -2.306801 2.581984 -1.682150 -0.128870 0.395920 -0.108510 0.020450 
-1.157950 17.359910 -1.288460 -178.313530 -25.354650 175.569112 -15.828885 14.287828 3.431406 2.377335 -2.477867 -22.115445 -3.991760 5.088502 15.215159 -0.373663 2.877583 3.527514 0.532990 0.555020 0.056970 17.378195 -10.443076 2.697938 -8.212104 1.350784 -11.941934 10.794086 -5.660943 15.775138 -0.132832 -3.467919 3.354140 0.329770 0.052780 -0.299690 -1.825826 -4.386714 -7.870547 -3.040372 3.910926 14.987616 7.562382 3.863833 20.937745 1.406272 -7.521162 -20.406572 -17.939555 -4.834665 34.394206 13.718090 -14.269810 -14.362860 -5.932045 -29.744225 9.596686 -60.701996 -53.665622 12.385331 4.940586 -61.318410 -9.856189 -2.859876 3.250337 0.235230 -0.223560 -0.123010 0.281730 5.889912 38.124334 16.484401 5.322568 10.040053 -4.308408 -18.830277 4.225076 -1.617118 2.711481 -1.536276 -0.076800 0.337870 -0.185600 0.032940 
-1.267910 17.428700 -1.254140 -178.731920 -24.267866 175.882018 -15.832570 14.348532 3.464876 0.616770 -2.281600 -19.326469 -4.316010 4.689338 12.358651 -0.321366 2.679300 3.608273 0.546680 0.540760 0.107420 17.370093 -10.319305 2.763724 -9.126742 1.167204 -10.664952 12.129302 -5.698819 13.573205 -0.210503 -3.465253 3.355606 0.268530 -0.031610 -0.258660 -1.814188 -4.681756 -8.018167 -0.781543 2.942680 16.205379 6.198755 3.242902 19.452436 3.077960 -8.456139 -20.735790 -21.518142 -3.362784 36.648071 12.912800 -13.947590 -15.373240 -7.738769 -28.600340 8.675416 -61.038932 -47.535660 10.175502 -17.391534 -62.369687 2.646938 -2.848925 3.462605 0.311520 -0.282540 -0.034470 0.268120 4.663833 37.749977 17.405035 3.863285 7.996769 -2.805923 -13.660382 1.841238 -0.698629 2.796600 -1.277079 -0.030300 0.287580 -0.207350 0.014570 
-1.364960 17.468120 -1.240890 -179.001014 -24.056396 176.400721 -15.787373 14.293776 3.496125 -0.892539 -2.113921 -17.253185 -4.578822 4.467424 10.352553 -0.209382 2.530668 3.655081 0.522460 0.524180 0.110930 17.430660 -10.214600 2.853310 -9.606326 1.007287 -9.373354 13.751703 -5.782968 11.649610 -0.279811 -3.530306 3.335777 0.196700 -0.106850 -0.251700 -1.993428 -4.750823 -8.146364 1.864787 1.623271 17.107587 4.414131 2.519896 16.783202 4.372026 -9.407757 -20.584624 -24.982563 -1.711442 38.309240 12.865200 -13.928170 -15.809210 -9.576373 -26.383068 7.792864 -61.923072 -38.183427 7.495520 -44.542382 -60.969933 17.947504 -2.953940 3.540995 0.328960 -0.343310 0.027720 0.241280 4.080399 36.263746 17.815334 3.862871 6.503722 -1.695538 -9.188762 -0.385118 -0.156285 2.911524 -1.043531 0.031190 0.234560 -0.218420 0.026990 
-1.446870 17.475490 -1.256800 -179.652926 -22.780505 177.455192 -15.747769 14.249829 3.573513 -1.898871 -1.976543 -15.486017 -5.526719 4.464260 8.654458 -0.101144 2.536592 3.671335 0.466500 0.461180 0.078590 17.475602 -10.198040 2.855881 -9.979366 0.838208 -8.813854 13.757834 -5.712148 10.807976 -0.290597 -3.500516 3.369754 0.116440 -0.115910 -0.251540 -2.124450 -4.749658 -8.246656 3.474892 0.909553 17.094290 3.541313 2.295002 13.680120 4.957754 -10.241083 -20.859370 -28.301019 0.442257 39.797581 13.025160 -13.831100 -14.462730 -10.689115 -24.116975 7.347926 -61.488948 -30.317651 5.057736 -62.259182 -54.395702 24.839459 -3.050205 3.523259 0.336710 -0.364090 0.046930 0.230610 4.412047 34.668209 18.185129 4.636031 4.287618 -1.517632 -7.398748 -0.531893 0.033157 2.941282 -0.947328 0.055280 0.213170 -0.207780 0.043660 
